<?xml version="1.0" encoding="UTF-8" standalone="no"?>
<svg
   version="1.1"
   width="217.57268"
   height="252.89999"
   viewBox="0 0 217.57268 252.89999"
   xml:space="preserve"
   id="svg3"
   sodipodi:docname="user-logout-304.svg"
   inkscape:version="1.3.2 (091e20e, 2023-11-25, custom)"
   xmlns:inkscape="http://www.inkscape.org/namespaces/inkscape"
   xmlns:sodipodi="http://sodipodi.sourceforge.net/DTD/sodipodi-0.dtd"
   xmlns="http://www.w3.org/2000/svg"
   xmlns:svg="http://www.w3.org/2000/svg"><sodipodi:namedview
   id="namedview3"
   pagecolor="#ffffff"
   bordercolor="#000000"
   borderopacity="0.25"
   inkscape:showpageshadow="2"
   inkscape:pageopacity="0.0"
   inkscape:pagecheckerboard="0"
   inkscape:deskcolor="#d1d1d1"
   inkscape:zoom="2.2910156"
   inkscape:cx="88.388747"
   inkscape:cy="155.60784"
   inkscape:window-width="1350"
   inkscape:window-height="1237"
   inkscape:window-x="858"
   inkscape:window-y="28"
   inkscape:window-maximized="0"
   inkscape:current-layer="svg3" />

<defs
   id="defs1">
</defs>
<g
   style="opacity:1;fill:none;fill-rule:nonzero;stroke:none;stroke-width:0;stroke-linecap:butt;stroke-linejoin:miter;stroke-miterlimit:10;stroke-dasharray:none"
   transform="matrix(2.81,0,0,2.81,-17.66366,0)"
   id="g3">
	<circle
   cx="69.252998"
   cy="75.333"
   r="10.973"
   style="opacity:1;fill:#ffffff;fill-rule:nonzero;stroke:none;stroke-width:1;stroke-linecap:butt;stroke-linejoin:miter;stroke-miterlimit:10;stroke-dasharray:none"
   id="circle1" />
	<path
   d="m 38.877,40.375 v 0 c -9.415,0 -17.118,-7.703 -17.118,-17.118 V 17.118 C 21.759,7.703 29.462,0 38.877,0 v 0 c 9.415,0 17.118,7.703 17.118,17.118 v 6.139 c 0,9.415 -7.703,17.118 -17.118,17.118 z"
   style="opacity:1;fill:#6eb1e1;fill-rule:nonzero;stroke:none;stroke-width:1;stroke-linecap:butt;stroke-linejoin:miter;stroke-miterlimit:10;stroke-dasharray:none"
   stroke-linecap="round"
   id="path1" />
	<path
   d="m 50.103,75.603 c 0,-10.209 7.969,-18.535 18.022,-19.154 -3.98,-7.222 -11.159,-12.461 -19.609,-13.722 -2.896,1.499 -6.169,2.363 -9.639,2.363 -3.47,0 -6.743,-0.863 -9.639,-2.363 C 16.296,44.659 6.286,55.889 6.286,69.347 v 17.707 c 0,1.62 1.326,2.946 2.946,2.946 h 47.391 c -3.99,-3.521 -6.52,-8.658 -6.52,-14.397 z"
   style="opacity:1;fill:#6eb1e1;fill-rule:nonzero;stroke:none;stroke-width:1;stroke-linecap:butt;stroke-linejoin:miter;stroke-miterlimit:10;stroke-dasharray:none"
   stroke-linecap="round"
   id="path2" />
	<path
   d="m 69.317,61.206 c -7.951,0 -14.397,6.446 -14.397,14.397 0,7.951 6.446,14.397 14.397,14.397 7.951,0 14.397,-6.446 14.397,-14.397 0,-7.951 -6.446,-14.397 -14.397,-14.397 z m 7.032,17.128 c 0.403,0.403 0.403,1.057 0,1.46 l -2.656,2.656 c -0.403,0.403 -1.057,0.403 -1.46,0 l -2.837,-2.837 -2.837,2.837 c -0.403,0.403 -1.057,0.403 -1.46,0 l -2.656,-2.656 c -0.403,-0.403 -0.403,-1.057 0,-1.46 L 65.28,75.497 62.443,72.66 c -0.403,-0.403 -0.403,-1.057 0,-1.46 l 2.656,-2.656 c 0.403,-0.403 1.057,-0.403 1.46,0 l 2.837,2.837 2.837,-2.837 c 0.403,-0.403 1.057,-0.403 1.46,0 l 2.656,2.656 c 0.403,0.403 0.403,1.057 0,1.46 l -2.837,2.837 z"
   style="opacity:1;fill:#f0582f;fill-rule:nonzero;stroke:none;stroke-width:1;stroke-linecap:butt;stroke-linejoin:miter;stroke-miterlimit:10;stroke-dasharray:none"
   stroke-linecap="round"
   id="path3" />
</g>
</svg>
